PathFileType	4	(X/Y/Z)	Patient4_TMGait_0pt2_03_left_12.trc.trc
DataRate	CameraRate	NumFrames	NumMarkers	Units	OrigDataRate	OrigDataStartFrame	OrigNumFrames
44.585987261146	44.585987261146	5	33	mm	44.585987261146	53	       141
Frame#	Time	Sacral			L.Shoulder			Chest			R.Shoulder			Neck			R.ASIS			L.ASIS			R.Thigh.Superior			R.Thigh.Lateral			R.Thigh.Inferior			R.Patella			L.Thigh.Superior			L.Thigh.Lateral			L.Thigh.Inferior			L.Patella			L.Shank.Superior			L.Shank.Lateral			L.Shank.Inferior			R.Shank.Superior			R.Shank.Lateral			R.Shank.Inferior			R.Heel			R.Midfoot.Superior			R.Midfoot.Lateral			R.Toe			L.Heel			L.Midfoot.Lateral			L.Midfoot.Superior			L.Toe			L.Elbow			L.Wrist			R.Elbow			R.Wrist			
		X1	Y1	Z1	X2	Y2	Z2	X3	Y3	Z3	X4	Y4	Z4	X5	Y5	Z5	X6	Y6	Z6	X7	Y7	Z7	X8	Y8	Z8	X9	Y9	Z9	X10	Y10	Z10	X11	Y11	Z11	X12	Y12	Z12	X13	Y13	Z13	X14	Y14	Z14	X15	Y15	Z15	X16	Y16	Z16	X17	Y17	Z17	X18	Y18	Z18	X19	Y19	Z19	X20	Y20	Z20	X21	Y21	Z21	X22	Y22	Z22	X23	Y23	Z23	X24	Y24	Z24	X25	Y25	Z25	X26	Y26	Z26	X27	Y27	Z27	X28	Y28	Z28	X29	Y29	Z29	X30	Y30	Z30	X31	Y31	Z31	X32	Y32	Z32	X33	Y33	Z33	

53	25.646285714286	793.766088085298	1010.405781605194	441.127832198341	976.029503416115	1430.982415110141	250.187512468093	1079.992142731064	1361.812720045464	409.607759597234	1004.607806524492	1441.457941885265	583.037169413821	958.208285276435	1495.918920303767	406.908377716846	1021.206630316897	943.745967281743	561.148500432130	1010.531246794863	958.991853851030	287.256829572498	1070.033979907979	743.211244193088	538.276608769493	998.708446354267	635.094655852957	609.151169381372	1077.448163933483	576.595727424001	532.024447333667	1074.355010439231	469.155673912227	555.902725503440	1070.129285988367	755.144471407584	334.280601356075	992.679726023157	621.352740457810	270.388596261777	1082.363314939217	561.159825291390	349.578123529699	1085.714276320919	490.454932590026	359.826138627575	1059.161039501586	415.955869615658	350.404552631275	974.926121609095	301.036196475570	292.345178504185	1015.591483615314	191.978286412825	372.089834324322	998.067538666737	403.043913327572	570.937735365606	881.872022628991	365.513511318381	640.956531188069	865.959621566820	253.946078614265	597.360778737747	666.830125134562	193.310212611089	578.803614083873	829.493387146405	128.001494300022	623.784478315438	722.496075100816	136.588717804623	655.542778827466	888.278278786388	29.736564777073	655.326546153918	881.627737673339	37.756863068588	399.961904783753	963.165625855086	35.811646761403	326.718955632542	1042.640266169415	96.852720580920	361.901403950112	1172.992966132802	49.052654777791	345.780958079899	947.705620373804	1084.529439493741	121.283130951070	1019.650620992871	833.695711709108	125.655550222204	1069.658091231757	1095.184137927513	703.305159567543	1285.679925994752	963.317163583014	686.242493731053	
54	25.668714285714	793.507830961266	1007.037715783836	435.914391508481	977.201276298609	1430.084900462340	249.495383739170	1079.308042811480	1359.829237666618	409.559826747627	1001.697246928563	1437.227755480286	583.051876558978	957.875669516087	1493.782885848346	406.799511610593	1020.791483978860	941.878583532896	557.284691498765	1011.793632360723	957.510329349079	283.386957825238	1076.704908473910	744.671972933357	532.580079927976	1010.260412111202	634.528875678283	603.679231483369	1090.182246415807	578.413961305359	525.367148019742	1089.820779157851	469.485081851583	550.023845681316	1073.243826454706	754.109750771867	331.644365333965	997.237456925408	619.075341845294	268.752620043024	1086.984050904491	559.934296180379	348.931121015565	1090.909363687606	488.519309446186	359.583224257477	1062.421527619315	413.646539818585	350.417340204252	976.358898406985	300.274320766003	292.060049651642	1013.749669166565	190.638768250311	372.273184101113	1011.780347193899	403.636999895080	565.807447837961	893.899980651161	370.152291120592	635.263730615909	875.182283359941	258.550208183844	593.241236219640	675.673304075265	207.112397741191	572.538099270969	833.656803230316	132.224317328244	621.333650975547	726.431164156412	147.691489818304	650.771433186987	885.120794598962	28.618076410653	655.213486813558	877.214210423048	37.851573571466	399.950061320678	958.763763727727	35.869454539816	326.747657096359	1038.420581463159	96.601460930091	362.191766492815	1168.705784908101	48.462180995777	345.879491573702	963.948487957403	1082.602171191111	119.446094702518	1046.291315803433	835.055363996616	124.910498043660	1053.019484794600	1086.886377820142	701.298384744680	1251.914987212886	928.644336874788	693.777228161122	
55	25.691142857143	793.392305834255	1003.457980785101	431.002341555369	978.485624263682	1428.997680388366	249.108322089282	1078.682092523961	1357.593156879496	409.822356614554	998.742160448681	1432.700713553216	583.295245229925	957.537968541116	1491.405144960735	406.995655410558	1020.501954540023	939.824122421834	553.710416737433	1013.170184294393	955.819756957164	279.797837367350	1083.002802082680	746.100827269251	527.150181699066	1021.344178696941	634.171848760198	598.517877537090	1102.192527369487	580.410749933024	518.925940249442	1104.536116399075	470.155098119723	544.252681731501	1076.459731645546	752.904172939186	329.174266976745	1001.826001480084	616.642720069513	267.309384637763	1091.692100895813	558.578169482935	348.429259080514	1096.211510213345	486.479526648128	359.505267685296	1065.754225726014	411.210156446273	350.589186829519	977.850519855543	299.454531300272	291.879742741890	1011.955019145167	189.237371972277	372.454538979703	1024.948418294278	404.448301022015	560.768510946986	905.418885094685	374.628277116439	629.411546548370	884.420326549249	262.927983347519	588.939478890162	684.852285837819	219.412611457443	565.857880608185	838.487727202213	136.433138888617	618.472272323735	731.124949625140	157.920914311975	645.599993358386	883.325578529230	27.840490246647	654.728310960454	872.807817780382	37.960365876121	399.919969749763	954.373306999489	35.925277827083	326.760326819798	1034.220596254925	96.343549042695	362.463667703072	1164.439933240239	47.822820821123	345.963646815638	980.232040392535	1081.222432679092	118.046189161324	1073.450517722373	837.593876491929	125.138089239181	1035.785328979104	1079.101492018922	699.261734377622	1214.391533367789	896.838289656916	699.850832316714	
56	25.713571428571	793.408317823821	999.865307493321	426.396086694970	979.993797648190	1427.807443530744	248.980423783385	1078.177967347614	1355.232043366674	410.394121289683	995.771734311418	1428.099371139350	583.706130719416	957.259502735885	1488.926491797836	407.410705142152	1020.282888184539	937.698935643842	550.497435570653	1014.685195943279	954.023094632629	276.552713408290	1088.776149054060	747.539427598767	522.153503168848	1031.677989226914	634.080488500921	593.815136908387	1113.269872669131	582.590796488932	512.945054170742	1118.253671302188	471.188041276235	538.841793656531	1079.633898205013	751.549393653564	326.913163183191	1006.208825583231	614.156732078188	266.047956271783	1096.180809115399	557.116657627114	348.072505007431	1101.255117215311	484.395607843142	359.586757392800	1068.870976649200	408.738775336604	350.899010524427	979.203072937417	298.601253432733	291.787267851852	1010.108624526324	187.830128959156	372.627047626050	1037.356372662197	405.473158588631	556.008567313729	916.217862114866	378.765132413940	623.581840412531	893.583139519670	266.865518503038	584.586899389813	694.102882000936	229.476054314622	559.034067220578	844.167745602229	140.442161049254	615.257858278828	736.656640817139	166.647448914927	640.223434644003	883.604811997067	27.543985209850	653.798342049634	868.403135945443	38.079888630053	399.870779379802	949.990151756265	35.976991655885	326.756386806588	1030.026816402125	96.084359952154	362.709135233639	1160.185273393367	47.156810471255	346.032214839567	996.409032910540	1080.483840572429	116.995821977942	1100.904994944367	841.474286852271	126.203596574902	1017.871843000339	1072.144368905711	697.222504182324	1173.847738427426	868.833618882447	704.239441911829	
57	25.736000000000	793.534375499103	996.475212723698	422.093762081721	981.821887535609	1426.624352871733	249.073523302432	1077.843367438107	1352.897716431092	411.275668291779	992.807088717062	1423.673042930435	584.227602183310	957.100250408284	1486.510300246086	407.964768866977	1020.059221604741	935.639059664962	547.716893800558	1016.349738961095	952.246242713685	273.717536424996	1093.894552197186	749.046340278531	517.739741373111	1041.018283377719	634.305807235899	589.700706172335	1123.247434688216	584.964247564175	507.645711828787	1130.779878593387	472.617173774842	534.023315012903	1082.618644130571	750.089491373021	324.915736599312	1010.159090115617	611.735751711550	264.961069530700	1100.152998634730	555.592797443510	347.860282911084	1105.688273977072	482.338751764427	359.816416708553	1071.493758991790	406.335750232793	351.320016119307	980.221774850338	297.748488912918	291.761897379774	1008.110913915049	186.477807540607	372.786308933514	1048.863241514204	406.701822731137	551.707710595505	926.194842651445	382.363651157771	617.991788851145	902.675195580724	270.142237798733	580.340641093292	703.279248735343	236.619702166044	552.400172667167	850.960453294330	144.047179740240	611.799066927564	743.197240891969	173.269653038103	634.895282992458	886.727311690257	27.821471339152	652.405939409290	863.993143020767	38.205139303377	399.802940438686	945.608577291114	36.022817549336	326.736118890259	1025.824598606037	95.831428037562	362.921396930413	1155.929887752053	46.489862811762	346.085588397532	1012.337761882783	1080.465326682237	116.211153843762	1128.429015839163	846.848166165164	127.977258341878	999.226905774680	1066.342109881631	695.177582454569	1131.196517157686	845.357812556503	706.804647795266	
